<svg width="100%" height="100%" viewBox="0 0 50 50" fill="none" xmlns="http://www.w3.org/2000/svg">
<path d="M38.7969 11.2656L36.5274 3.71093L35.7539 2.67187C35.7539 2.67187 35.6954 2.60155 35.6875 2.57812C35.6641 2.48046 35.6368 2.3203 35.7305 2.19921C35.8008 2.10937 35.9219 2.08593 36.0625 2.09765C36.1172 2.10155 36.25 2.15234 36.461 2.26952C38.5352 3.4414 47.4805 10.7656 48.2344 22.5898C48.6602 29.2695 46.2227 36.418 41.0977 41.4023C36.2305 46.1328 28.8789 49.0781 20.793 47.9258C8.70707 46.2031 3.51957 38.8594 2.1641 36.4336C1.92582 36.0039 1.80864 35.7305 1.7852 35.6641C1.46489 34.8242 1.55082 34.3984 1.8516 34.3008C1.92973 34.2773 2.10551 34.3086 2.20317 34.418C2.59379 34.8555 3.30473 35.1406 3.30473 35.1406L8.33598 39.2148L33.293 41.1055L42.1407 21.8164L38.7969 11.2656V11.2656Z" fill="#FFB803"/>
<path d="M28.7695 34.2461C35.0078 30.3789 38.0547 23.8086 38.2969 17.7305C38.6484 8.82812 35.6875 2.57422 35.6875 2.57422C35.6875 2.57422 41.1602 7.06641 44.1562 13.543C47.1523 20.0195 47.6719 30.6797 41.1172 38.3086C33.9102 46.6875 24.25 47.1836 18.1758 45.6133C5.57031 42.3516 2.125 34.3516 2.125 34.3516C2.125 34.3516 9.07031 38.2383 16.8789 37.8281C22.6914 37.5234 25.6836 36.1602 28.7695 34.2461V34.2461Z" fill="#FFCA29"/>
</svg>
