<svg width="24" height="25" viewBox="0 0 24 25" fill="none" xmlns="http://www.w3.org/2000/svg">
<path d="M7.55 6.60253C7.90574 6.4345 8.30153 6.36978 8.69227 6.41575C9.083 6.46172 9.45297 6.61653 9.76 6.86254L14.86 11.0725L15 11.2225V7.40254C15 7.13732 15.1054 6.88296 15.2929 6.69543C15.4804 6.50789 15.7348 6.40254 16 6.40254C16.2652 6.40254 16.5196 6.50789 16.7071 6.69543C16.8946 6.88296 17 7.13732 17 7.40254V17.4025C17 17.6678 16.8946 17.9221 16.7071 18.1096C16.5196 18.2972 16.2652 18.4025 16 18.4025C15.7348 18.4025 15.4804 18.2972 15.2929 18.1096C15.1054 17.9221 15 17.6678 15 17.4025V13.5825L14.86 13.7325L9.76 17.9425C9.39238 18.2407 8.93331 18.4031 8.46 18.4025C8.14597 18.4007 7.83587 18.3325 7.55 18.2025C7.24083 18.0663 6.97741 17.8439 6.79122 17.5619C6.60503 17.28 6.50393 16.9504 6.5 16.6125V8.19254C6.50393 7.85468 6.60503 7.5251 6.79122 7.24315C6.97741 6.96121 7.24083 6.73881 7.55 6.60253Z" fill="#081212"/>
</svg>
