<svg width="42" height="42" viewBox="0 0 42 42" fill="none" xmlns="http://www.w3.org/2000/svg">
<circle cx="21" cy="21" r="20.5" stroke="#BBCDCD"/>
<path fill-rule="evenodd" clip-rule="evenodd" d="M14 21.0001C14 20.8675 14.0527 20.7404 14.1464 20.6466C14.2402 20.5528 14.3674 20.5001 14.5 20.5001H26.293L23.146 17.3541C23.0995 17.3077 23.0626 17.2525 23.0375 17.1917C23.0123 17.131 22.9994 17.0659 22.9994 17.0001C22.9994 16.9344 23.0123 16.8693 23.0375 16.8086C23.0626 16.7478 23.0995 16.6926 23.146 16.6461C23.1925 16.5997 23.2477 16.5628 23.3084 16.5376C23.3691 16.5125 23.4342 16.4995 23.5 16.4995C23.5657 16.4995 23.6308 16.5125 23.6916 16.5376C23.7523 16.5628 23.8075 16.5997 23.854 16.6461L27.854 20.6461C27.9006 20.6926 27.9375 20.7478 27.9627 20.8085C27.9879 20.8693 28.0009 20.9344 28.0009 21.0001C28.0009 21.0659 27.9879 21.131 27.9627 21.1918C27.9375 21.2525 27.9006 21.3077 27.854 21.3541L23.854 25.3541C23.8075 25.4006 23.7523 25.4375 23.6916 25.4627C23.6308 25.4878 23.5657 25.5008 23.5 25.5008C23.4342 25.5008 23.3691 25.4878 23.3084 25.4627C23.2477 25.4375 23.1925 25.4006 23.146 25.3541C23.0995 25.3077 23.0626 25.2525 23.0375 25.1917C23.0123 25.131 22.9994 25.0659 22.9994 25.0001C22.9994 24.9344 23.0123 24.8693 23.0375 24.8086C23.0626 24.7478 23.0995 24.6926 23.146 24.6461L26.293 21.5001H14.5C14.3674 21.5001 14.2402 21.4475 14.1464 21.3537C14.0527 21.2599 14 21.1328 14 21.0001Z" fill="#BBCDCD" stroke="#BBCDCD" stroke-width="0.5"/>
</svg>
