<svg width="50" height="50" viewBox="0 0 50 50" fill="none" xmlns="http://www.w3.org/2000/svg">
<g filter="url(#filter0_di)">
<circle cx="25" cy="21.4023" r="20" fill="white"/>
<circle cx="25" cy="21.4023" r="20.25" stroke="#FAFAFA" stroke-width="0.5"/>
</g>
<path d="M22.25 14.5273H20.875C20.5103 14.5273 20.1606 14.6722 19.9027 14.9301C19.6449 15.1879 19.5 15.5377 19.5 15.9023V26.9023C19.5 27.267 19.6449 27.6168 19.9027 27.8746C20.1606 28.1325 20.5103 28.2773 20.875 28.2773H22.25C22.6147 28.2773 22.9644 28.1325 23.2223 27.8746C23.4801 27.6168 23.625 27.267 23.625 26.9023V15.9023C23.625 15.5377 23.4801 15.1879 23.2223 14.9301C22.9644 14.6722 22.6147 14.5273 22.25 14.5273Z" fill="#081212"/>
<path d="M29.125 14.5273H27.75C27.3853 14.5273 27.0356 14.6722 26.7777 14.9301C26.5199 15.1879 26.375 15.5377 26.375 15.9023V26.9023C26.375 27.267 26.5199 27.6168 26.7777 27.8746C27.0356 28.1325 27.3853 28.2773 27.75 28.2773H29.125C29.4897 28.2773 29.8394 28.1325 30.0973 27.8746C30.3551 27.6168 30.5 27.267 30.5 26.9023V15.9023C30.5 15.5377 30.3551 15.1879 30.0973 14.9301C29.8394 14.6722 29.4897 14.5273 29.125 14.5273Z" fill="#081212"/>
<defs>
<filter id="filter0_di" x="0.5" y="0.902344" width="49" height="49" filterUnits="userSpaceOnUse" color-interpolation-filters="sRGB">
<feFlood flood-opacity="0" result="BackgroundImageFix"/>
<feColorMatrix in="SourceAlpha" type="matrix" values="0 0 0 0 0 0 0 0 0 0 0 0 0 0 0 0 0 0 127 0" result="hardAlpha"/>
<feOffset dy="4"/>
<feGaussianBlur stdDeviation="2"/>
<feComposite in2="hardAlpha" operator="out"/>
<feColorMatrix type="matrix" values="0 0 0 0 0 0 0 0 0 0 0 0 0 0 0 0 0 0 0.1 0"/>
<feBlend mode="normal" in2="BackgroundImageFix" result="effect1_dropShadow"/>
<feBlend mode="normal" in="SourceGraphic" in2="effect1_dropShadow" result="shape"/>
<feColorMatrix in="SourceAlpha" type="matrix" values="0 0 0 0 0 0 0 0 0 0 0 0 0 0 0 0 0 0 127 0" result="hardAlpha"/>
<feOffset dx="3" dy="3"/>
<feGaussianBlur stdDeviation="2"/>
<feComposite in2="hardAlpha" operator="arithmetic" k2="-1" k3="1"/>
<feColorMatrix type="matrix" values="0 0 0 0 0 0 0 0 0 0 0 0 0 0 0 0 0 0 0.12 0"/>
<feBlend mode="normal" in2="shape" result="effect2_innerShadow"/>
</filter>
</defs>
</svg>
