<svg width="11" height="13" viewBox="0 0 11 13" fill="none" xmlns="http://www.w3.org/2000/svg">
<path d="M9.45 0.602535C9.09426 0.434502 8.69847 0.369783 8.30773 0.415752C7.917 0.461721 7.54703 0.616529 7.24 0.862535L2.14 5.07254L2 5.22253V1.40254C2 1.13732 1.89464 0.882965 1.70711 0.695429C1.51957 0.507892 1.26522 0.402535 1 0.402535C0.734784 0.402535 0.48043 0.507892 0.292893 0.695429C0.105357 0.882965 0 1.13732 0 1.40254V11.4025C0 11.6678 0.105357 11.9221 0.292893 12.1096C0.48043 12.2972 0.734784 12.4025 1 12.4025C1.26522 12.4025 1.51957 12.2972 1.70711 12.1096C1.89464 11.9221 2 11.6678 2 11.4025V7.58254L2.14 7.73253L7.24 11.9425C7.60762 12.2407 8.06669 12.4031 8.54 12.4025C8.85403 12.4007 9.16413 12.3325 9.45 12.2025C9.75917 12.0663 10.0226 11.8439 10.2088 11.5619C10.395 11.28 10.4961 10.9504 10.5 10.6125V2.19254C10.4961 1.85468 10.395 1.5251 10.2088 1.24315C10.0226 0.961208 9.75917 0.738815 9.45 0.602535Z" fill="#081212"/>
</svg>
