<svg width="100%" height="100%" viewBox="0 0 50 50" fill="none" xmlns="http://www.w3.org/2000/svg">
<path d="M16.0156 46.6406L21.4844 41.0156C19.5312 40.625 17.7344 39.8437 16.0938 38.75L16.0156 46.6406Z" fill="#FFE62E"/>
<path d="M33.9844 3.35938L28.5156 8.98438C30.4688 9.375 32.2656 10.1563 33.9063 11.25L33.9844 3.35938" fill="#FFE62E"/>
<path d="M3.35938 33.9844L11.25 33.9063C10.1563 32.2656 9.375 30.4688 8.98438 28.5156L3.35938 33.9844Z" fill="#FFE62E"/>
<path d="M46.6406 16.0156L38.75 16.0938C39.7656 17.7344 40.5469 19.5312 41.0156 21.4844L46.6406 16.0156Z" fill="#FFE62E"/>
<path d="M3.35938 16.0156L8.98438 21.4844C9.375 19.5312 10.1563 17.7344 11.25 16.0938L3.35938 16.0156" fill="#FFE62E"/>
<path d="M46.6406 33.9844L41.0156 28.5156C40.625 30.4688 39.8437 32.2656 38.75 33.9063L46.6406 33.9844Z" fill="#FFE62E"/>
<path d="M16.0156 3.35938L16.0938 11.25C17.7344 10.2344 19.5312 9.45313 21.4844 8.98438L16.0156 3.35938" fill="#FFE62E"/>
<path d="M33.9844 46.6406L33.9063 38.75C32.2656 39.8437 30.4688 40.625 28.5156 41.0156L33.9844 46.6406Z" fill="#FFE62E"/>
<path d="M11.5625 34.375L8.4375 41.6406L15.7031 38.5156C14.0625 37.3437 12.6562 35.9375 11.5625 34.375Z" fill="#FFCE31"/>
<path d="M38.4375 15.625L41.5625 8.35938L34.375 11.4844C35.9375 12.6562 37.3438 14.0625 38.4375 15.625Z" fill="#FFCE31"/>
<path d="M8.90625 22.1094L1.5625 25L8.90625 27.8906C8.67188 26.9531 8.59375 26.0156 8.59375 25C8.59375 23.9844 8.67188 23.0469 8.90625 22.1094Z" fill="#FFCE31"/>
<path d="M41.0938 27.8906L48.4375 25L41.0938 22.1094C41.25 23.0469 41.4063 24.0625 41.4063 25C41.4063 26.0156 41.3281 26.9531 41.0938 27.8906Z" fill="#FFCE31"/>
<path d="M15.625 11.5625L8.35938 8.4375L11.4844 15.7031C12.6562 14.0625 14.0625 12.6562 15.625 11.5625Z" fill="#FFCE31"/>
<path d="M34.375 38.4375L41.6406 41.5625L38.5156 34.2969C37.3437 35.9375 35.9375 37.3437 34.375 38.4375Z" fill="#FFCE31"/>
<path d="M27.8906 8.90625L25 1.5625L22.1094 8.90625C23.0469 8.75 24.0625 8.59375 25 8.59375C25.9375 8.59375 26.9531 8.67188 27.8906 8.90625Z" fill="#FFCE31"/>
<path d="M22.1094 41.0938L25 48.4375L27.8906 41.0938C26.9531 41.3281 26.0156 41.4063 25 41.4063C23.9844 41.4063 23.0469 41.3281 22.1094 41.0938Z" fill="#FFCE31"/>
<path d="M25 39.8438C33.198 39.8438 39.8438 33.198 39.8438 25C39.8438 16.802 33.198 10.1562 25 10.1562C16.802 10.1562 10.1562 16.802 10.1562 25C10.1562 33.198 16.802 39.8438 25 39.8438Z" fill="#FFCE31"/>
</svg>
